<svg width="30" height="10" viewBox="0 0 30 10" fill="none" xmlns="http://www.w3.org/2000/svg">
<g id="mir">
<path id="Vector" d="M16.6813 2.17708L14.8645 6.09161H14.6806V1.33362H12.0852V9.3357H14.2372C14.8212 9.3357 15.3403 9.00048 15.589 8.48142L17.4166 4.57771H17.6005V9.3357H20.1959V1.33362H18.0114C17.4491 1.33362 16.9192 1.66884 16.6813 2.17708Z" fill="#319B42"/>
<path id="Vector_2" d="M6.97243 2.38254L5.90182 6.09161H5.71798L4.63656 2.38254C4.45271 1.75535 3.87956 1.33362 3.2307 1.33362H0.667725V9.3357H3.26315V4.57771H3.44699L4.93935 9.3357H6.66963L8.162 4.57771H8.34584V9.3357H10.9413V1.33362H8.37829C7.72943 1.33362 7.14546 1.75535 6.97243 2.38254Z" fill="#319B42"/>
<g id="Vector_3">
<path d="M21.3244 4.9007V9.3357H23.9207V6.7396H26.7116C27.9232 6.7396 28.9509 5.97159 29.3295 4.9007H21.3244Z" fill="#319B42"/>
<path d="M26.6358 1.33362H20.8591C21.2161 3.23742 22.882 4.57874 24.8833 4.57874H29.3727C29.4051 4.40567 29.4267 4.21096 29.4267 4.01625C29.4267 2.46941 28.1827 1.33362 26.6358 1.33362Z" fill="url(#paint0_linear_13_254)"/>
</g>
</g>
<defs>
<linearGradient id="paint0_linear_13_254" x1="20.8591" y1="2.95618" x2="29.4267" y2="2.95618" gradientUnits="userSpaceOnUse">
<stop stop-color="#00A3E1"/>
<stop offset="0.3042" stop-color="#009ADD"/>
<stop offset="0.7987" stop-color="#0082D4"/>
<stop offset="1" stop-color="#0076CF"/>
</linearGradient>
</defs>
</svg>
