<svg width="29" height="31" viewBox="0 0 29 31" fill="none" xmlns="http://www.w3.org/2000/svg">
<g opacity="0.4" filter="url(#filter0_d_21_40)">
<path fill-rule="evenodd" clip-rule="evenodd" d="M12.9338 3.70286C9.44752 3.70286 6.62132 6.52907 6.62132 10.0154C6.62132 13.5017 9.44752 16.3279 12.9338 16.3279C16.4201 16.3279 19.2463 13.5017 19.2463 10.0154C19.2463 6.52907 16.4201 3.70286 12.9338 3.70286ZM4.93799 10.0154C4.93799 5.59939 8.51784 2.01953 12.9338 2.01953C17.3498 2.01953 20.9296 5.59939 20.9296 10.0154C20.9296 14.4313 17.3498 18.0112 12.9338 18.0112C8.51784 18.0112 4.93799 14.4313 4.93799 10.0154Z" fill="white"/>
<path fill-rule="evenodd" clip-rule="evenodd" d="M16.9602 14.8988C17.2846 14.5659 17.8175 14.559 18.1504 14.8834L24.1959 20.7751C24.5288 21.0995 24.5357 21.6324 24.2112 21.9653C23.8868 22.2982 23.3539 22.3051 23.021 21.9806L16.9756 16.089C16.6427 15.7645 16.6358 15.2317 16.9602 14.8988Z" fill="white"/>
</g>
<defs>
<filter id="filter0_d_21_40" x="-1" y="0" width="32" height="32" filterUnits="userSpaceOnUse" color-interpolation-filters="sRGB">
<feFlood flood-opacity="0" result="BackgroundImageFix"/>
<feColorMatrix in="SourceAlpha" type="matrix" values="0 0 0 0 0 0 0 0 0 0 0 0 0 0 0 0 0 0 127 0" result="hardAlpha"/>
<feOffset dy="4"/>
<feGaussianBlur stdDeviation="2"/>
<feComposite in2="hardAlpha" operator="out"/>
<feColorMatrix type="matrix" values="0 0 0 0 0 0 0 0 0 0 0 0 0 0 0 0 0 0 0.25 0"/>
<feBlend mode="normal" in2="BackgroundImageFix" result="effect1_dropShadow_21_40"/>
<feBlend mode="normal" in="SourceGraphic" in2="effect1_dropShadow_21_40" result="shape"/>
</filter>
</defs>
</svg>
