<svg width="56" height="56" viewBox="0 0 56 56" fill="none" xmlns="http://www.w3.org/2000/svg">
<path fill-rule="evenodd" clip-rule="evenodd" d="M21.2214 18.4665C21.3829 18.9206 21.8452 19.1949 22.3212 19.119L35.0874 17.0828C35.5004 17.017 35.8288 16.701 35.9106 16.2909L37.2654 9.49865C37.3875 8.88644 36.925 8.31324 36.3008 8.30317L18.9412 8.02324C18.2435 8.01199 17.7491 8.70067 17.9829 9.35812L21.2214 18.4665Z" fill="white"/>
<path fill-rule="evenodd" clip-rule="evenodd" d="M21.8262 26.3593C23.1109 26.3593 24.1523 25.3178 24.1523 24.0331C24.1523 22.7484 23.1109 21.707 21.8262 21.707C20.5415 21.707 19.5 22.7484 19.5 24.0331C19.5 25.3178 20.5415 26.3593 21.8262 26.3593Z" fill="white"/>
<path fill-rule="evenodd" clip-rule="evenodd" d="M33.457 26.3593C34.7417 26.3593 35.7831 25.3178 35.7831 24.0331C35.7831 22.7484 34.7417 21.707 33.457 21.707C32.1723 21.707 31.1308 22.7484 31.1308 24.0331C31.1308 25.3178 32.1723 26.3593 33.457 26.3593Z" fill="white"/>
<path fill-rule="evenodd" clip-rule="evenodd" d="M15 5C16.933 5 18.5 4.77614 18.5 4.5C18.5 4.22386 16.933 4 15 4C13.067 4 11.5 4.22386 11.5 4.5C11.5 4.77614 13.067 5 15 5Z" fill="white"/>
<path fill-rule="evenodd" clip-rule="evenodd" d="M12.4544 3.65147C13.1177 3.55672 14.0175 3.5 15 3.5C15.9825 3.5 16.8823 3.55672 17.5456 3.65147C17.8735 3.69831 18.1649 3.75734 18.3849 3.83167C18.4917 3.86772 18.6118 3.91717 18.7151 3.98926C18.8002 4.04864 19 4.21275 19 4.5C19 4.78725 18.8002 4.95136 18.7151 5.01074C18.6118 5.08283 18.4917 5.13228 18.3849 5.16833C18.1649 5.24266 17.8735 5.30169 17.5456 5.34853C16.8823 5.44328 15.9825 5.5 15 5.5C14.0175 5.5 13.1177 5.44328 12.4544 5.34853C12.1265 5.30169 11.8351 5.24266 11.6151 5.16833C11.5083 5.13228 11.3882 5.08283 11.2849 5.01074C11.1998 4.95136 11 4.78725 11 4.5C11 4.21275 11.1998 4.04864 11.2849 3.98926C11.3882 3.91717 11.5083 3.86772 11.6151 3.83167C11.8351 3.75734 12.1265 3.69831 12.4544 3.65147Z" fill="white"/>
<path d="M10.0283 49.5H8.54297L5.02637 45.3359C4.89518 45.1794 4.81478 45.0736 4.78516 45.0186H4.75977V49.5H3.69336V40.3975H4.75977V44.6758H4.78516C4.8444 44.5827 4.9248 44.479 5.02637 44.3647L8.42871 40.3975H9.75537L5.85156 44.7646L10.0283 49.5ZM13.8115 49.6523C12.8509 49.6523 12.0828 49.3498 11.5073 48.7446C10.936 48.1353 10.6504 47.3291 10.6504 46.3262C10.6504 45.2344 10.9487 44.3817 11.5454 43.7681C12.1421 43.1545 12.9482 42.8477 13.9639 42.8477C14.9329 42.8477 15.6883 43.146 16.23 43.7427C16.7759 44.3394 17.0488 45.1667 17.0488 46.2246C17.0488 47.2614 16.7547 48.0929 16.1665 48.7192C15.5825 49.3413 14.7975 49.6523 13.8115 49.6523ZM13.8877 43.7236C13.2191 43.7236 12.6901 43.9521 12.3008 44.4092C11.9115 44.862 11.7168 45.4883 11.7168 46.2881C11.7168 47.0583 11.9136 47.6655 12.3071 48.1099C12.7007 48.5542 13.2275 48.7764 13.8877 48.7764C14.5605 48.7764 15.0768 48.5584 15.4365 48.1226C15.8005 47.6867 15.9824 47.0667 15.9824 46.2627C15.9824 45.4502 15.8005 44.8239 15.4365 44.3838C15.0768 43.9437 14.5605 43.7236 13.8877 43.7236ZM19.7783 48.5605H19.7529V52.4897H18.7119V43H19.7529V44.1426H19.7783C20.2904 43.2793 21.0394 42.8477 22.0254 42.8477C22.8633 42.8477 23.5171 43.1396 23.9868 43.7236C24.4565 44.3034 24.6914 45.082 24.6914 46.0596C24.6914 47.1471 24.4269 48.0189 23.8979 48.6748C23.369 49.3265 22.6453 49.6523 21.7271 49.6523C20.8849 49.6523 20.2354 49.2884 19.7783 48.5605ZM19.7529 45.939V46.8467C19.7529 47.3841 19.9264 47.8411 20.2734 48.2178C20.6247 48.5902 21.069 48.7764 21.6064 48.7764C22.237 48.7764 22.73 48.5352 23.0854 48.0527C23.4451 47.5703 23.625 46.8996 23.625 46.0405C23.625 45.3169 23.4578 44.7498 23.1235 44.3394C22.7892 43.9289 22.3364 43.7236 21.7651 43.7236C21.16 43.7236 20.6733 43.9352 20.3052 44.3584C19.937 44.7773 19.7529 45.3042 19.7529 45.939ZM25.8086 49.3159V48.2939C26.3757 48.6113 27.0379 48.77 27.7954 48.77C28.9422 48.77 29.5156 48.4061 29.5156 47.6782C29.5156 46.9588 28.8872 46.5991 27.6304 46.5991H26.9893V45.7168H27.5986C28.7031 45.7168 29.2554 45.374 29.2554 44.6885C29.2554 44.3965 29.1284 44.1637 28.8745 43.9902C28.6206 43.8167 28.2736 43.73 27.8335 43.73C27.203 43.73 26.5703 43.8887 25.9355 44.2061V43.2349C26.6549 42.9725 27.3151 42.8413 27.916 42.8413C29.4987 42.8413 30.29 43.4232 30.29 44.5869C30.29 44.9635 30.1715 45.2894 29.9346 45.5645C29.7018 45.8353 29.3739 46.0151 28.9507 46.104V46.1357C29.4331 46.1738 29.8203 46.3368 30.1123 46.6245C30.4043 46.9123 30.5503 47.2762 30.5503 47.7163C30.5503 48.3088 30.3112 48.7806 29.833 49.1318C29.3548 49.4831 28.6968 49.6587 27.8589 49.6587C26.966 49.6587 26.2826 49.5444 25.8086 49.3159ZM37.6025 49.5H36.6631V44.314C36.57 44.4959 36.4282 44.752 36.2378 45.082L33.2354 49.5H32.1562V43H33.1084V48.1226C33.1592 47.9998 33.2692 47.7904 33.4385 47.4941L36.5234 43H37.6025V49.5ZM45.1055 49.5H44.0645V46.5483H40.751V49.5H39.71V43H40.751V45.666H44.0645V43H45.1055V49.5ZM51.8657 49.5H50.8247V48.4844H50.7993C50.3465 49.263 49.68 49.6523 48.7998 49.6523C48.1523 49.6523 47.6445 49.481 47.2764 49.1382C46.9124 48.7954 46.7305 48.3405 46.7305 47.7734C46.7305 46.5589 47.4456 45.8522 48.876 45.6533L50.8247 45.3804C50.8247 44.2759 50.3783 43.7236 49.4854 43.7236C48.7025 43.7236 47.9958 43.9902 47.3652 44.5234V43.457C48.0042 43.0508 48.7406 42.8477 49.5742 42.8477C51.1019 42.8477 51.8657 43.6559 51.8657 45.2725V49.5ZM50.8247 46.2119L49.2568 46.4277C48.7744 46.4954 48.4105 46.616 48.165 46.7896C47.9196 46.9588 47.7969 47.2614 47.7969 47.6973C47.7969 48.0146 47.909 48.2749 48.1333 48.478C48.3618 48.6769 48.6644 48.7764 49.041 48.7764C49.5573 48.7764 49.9826 48.5965 50.3169 48.2368C50.6554 47.8729 50.8247 47.4137 50.8247 46.8594V46.2119Z" fill="white"/>
</svg>
