<svg width="12" height="13" viewBox="0 0 12 13" fill="none" xmlns="http://www.w3.org/2000/svg">
<rect width="12" height="13" fill="#E3E3E3"/>
<g id="&#208;&#154;&#208;&#190;&#209;&#128;&#208;&#183;&#208;&#184;&#208;&#189;&#208;&#176;-&#208;&#188;&#208;&#190;&#208;&#177;-003">
<rect width="320" height="2932.33" transform="translate(-16 -1428)" fill="#F6F6FA"/>
<g id="Frame 277132153">
<g id="Frame 10214">
<g id="Frame 277132153_2">
<g id="Frame 3849" clip-path="url(#clip0_0_1)">
<g id="&#208;&#148;&#208;&#190;&#209;&#129;&#209;&#130;&#208;&#176;&#208;&#178;&#208;&#186;&#208;&#176;">
<rect x="-16" y="-129.667" width="320" height="512" rx="16" fill="white"/>
<g id="Frame 10215">
<g id="Frame 5">
<g id="Frame 277132149">
<g id="Frame 277132149_2">
<g id="Frame 277132149_3">
<g id="cardRating">
<g id="Frame 3849_2">
<g id="rating / Stars">
<g id="rating / star_fill">
<path id="Path (Stroke)" fill-rule="evenodd" clip-rule="evenodd" d="M6.69769 1.48247C6.43817 0.861648 5.56198 0.861639 5.30244 1.48244L6.69769 1.48247ZM5.30244 1.48244L4.14719 4.24303L1.19202 4.49939C0.519264 4.55792 0.262282 5.39291 0.759713 5.82789L3.00514 7.7924L2.33207 10.7156C2.18436 11.3571 2.87792 11.89 3.46133 11.5356L6.00032 9.98936L8.53797 11.5348C9.12269 11.892 9.81568 11.3559 9.66861 10.7159L8.99549 7.79241L11.2402 5.82862C11.7385 5.39286 11.4793 4.55844 10.8083 4.49992L7.85294 4.24355L6.69769 1.48247" fill="#FF970D"/>
</g>
</g>
</g>
</g>
</g>
</g>
</g>
</g>
</g>
</g>
</g>
</g>
</g>
</g>
</g>
<defs>
<clipPath id="clip0_0_1">
<rect width="320" height="1080" fill="white" transform="translate(-16 -129.667)"/>
</clipPath>
</defs>
</svg>
